Griffith_Gothic-Thin.ufo
<glyph name="exclam" format="1">
  <advance width="230"/>
  <unicode hex="0021"/>
  <outline>
    <contour>
      <point x="142" y="720" type="line"/>
      <point x="124" y="198" type="line"/>
      <point x="106" y="198" type="line"/>
      <point x="88" y="720" type="line"/>
    </contour>
    <contour>
      <point x="153" y="31" type="curve" smooth="yes"/>
      <point x="153" y="9"/>
      <point x="137" y="-7"/>
      <point x="115" y="-7" type="curve" smooth="yes"/>
      <point x="93" y="-7"/>
      <point x="77" y="9"/>
      <point x="77" y="31" type="curve" smooth="yes"/>
      <point x="77" y="53"/>
      <point x="93" y="69"/>
      <point x="115" y="69" type="curve" smooth="yes"/>
      <point x="137" y="69"/>
      <point x="153" y="53"/>
    </contour>
  </outline>
</glyph>
<glyph name="numbersign" format="1">
  <advance width="600"/>
  <unicode hex="0023"/>
  <outline>
    <contour>
      <point x="572" y="469" type="line"/>
      <point x="452" y="469" type="line"/>
      <point x="415" y="251" type="line"/>
      <point x="538" y="251" type="line"/>
      <point x="538" y="217" type="line"/>
      <point x="409" y="217" type="line"/>
      <point x="373" y="0" type="line"/>
      <point x="333" y="0" type="line"/>
      <point x="369" y="217" type="line"/>
      <point x="182" y="217" type="line"/>
      <point x="146" y="0" type="line"/>
      <point x="106" y="0" type="line"/>
      <point x="143" y="217" type="line"/>
      <point x="28" y="217" type="line"/>
      <point x="28" y="251" type="line"/>
      <point x="148" y="251" type="line"/>
      <point x="185" y="469" type="line"/>
      <point x="62" y="469" type="line"/>
      <point x="62" y="503" type="line"/>
      <point x="191" y="503" type="line"/>
      <point x="227" y="720" type="line"/>
      <point x="267" y="720" type="line"/>
      <point x="231" y="503" type="line"/>
      <point x="418" y="503" type="line"/>
      <point x="454" y="720" type="line"/>
      <point x="494" y="720" type="line"/>
      <point x="457" y="503" type="line"/>
      <point x="572" y="503" type="line"/>
    </contour>
    <contour>
      <point x="412" y="469" type="line"/>
      <point x="225" y="469" type="line"/>
      <point x="188" y="251" type="line"/>
      <point x="375" y="251" type="line"/>
    </contour>
  </outline>
</glyph>
<glyph name="dollar" format="1">
  <advance width="535"/>
  <unicode hex="0024"/>
  <outline>
    <contour>
      <point x="492" y="184" type="curve" smooth="yes"/>
      <point x="492" y="67"/>
      <point x="397" y="4"/>
      <point x="288" y="-2" type="curve"/>
      <point x="288" y="-95" type="line"/>
      <point x="252" y="-95" type="line"/>
      <point x="252" y="-1" type="line"/>
      <point x="169" y="3"/>
      <point x="95" y="34"/>
      <point x="39" y="95" type="curve"/>
      <point x="67" y="126" type="line"/>
      <point x="123" y="66"/>
      <point x="178" y="38"/>
      <point x="252" y="34" type="curve"/>
      <point x="252" y="363" type="line"/>
      <point x="125" y="407"/>
      <point x="62" y="460"/>
      <point x="62" y="555" type="curve" smooth="yes"/>
      <point x="62" y="649"/>
      <point x="139" y="720"/>
      <point x="252" y="722" type="curve"/>
      <point x="252" y="762" type="line"/>
      <point x="288" y="762" type="line"/>
      <point x="288" y="721" type="line"/>
      <point x="360" y="715"/>
      <point x="417" y="688"/>
      <point x="471" y="633" type="curve"/>
      <point x="443" y="602" type="line"/>
      <point x="397" y="651"/>
      <point x="352" y="679"/>
      <point x="288" y="686" type="curve"/>
      <point x="288" y="391" type="line"/>
      <point x="439" y="336"/>
      <point x="492" y="281"/>
    </contour>
    <contour>
      <point x="252" y="404" type="curve"/>
      <point x="252" y="687" type="line"/>
      <point x="156" y="685"/>
      <point x="104" y="634"/>
      <point x="104" y="558" type="curve" smooth="yes"/>
      <point x="104" y="484"/>
      <point x="149" y="442"/>
    </contour>
    <contour>
      <point x="450" y="181" type="curve" smooth="yes"/>
      <point x="450" y="258"/>
      <point x="415" y="302"/>
      <point x="288" y="350" type="curve"/>
      <point x="288" y="33" type="line"/>
      <point x="386" y="39"/>
      <point x="450" y="90"/>
    </contour>
  </outline>
</glyph>
<glyph name="ampersand" format="1">
  <advance width="660"/>
  <unicode hex="0026"/>
  <outline>
    <contour>
      <point x="667" y="3" type="line"/>
      <point x="649" y="-3"/>
      <point x="635" y="-6"/>
      <point x="611" y="-6" type="curve" smooth="yes"/>
      <point x="550" y="-6"/>
      <point x="511" y="14"/>
      <point x="449" y="85" type="curve"/>
      <point x="391" y="25"/>
      <point x="322" y="-10"/>
      <point x="247" y="-10" type="curve" smooth="yes"/>
      <point x="126" y="-10"/>
      <point x="37" y="75"/>
      <point x="37" y="191" type="curve" smooth="yes"/>
      <point x="37" y="281"/>
      <point x="80" y="351"/>
      <point x="211" y="419" type="curve"/>
      <point x="174" y="478"/>
      <point x="148" y="535"/>
      <point x="148" y="589" type="curve" smooth="yes"/>
      <point x="148" y="670"/>
      <point x="209" y="732"/>
      <point x="291" y="732" type="curve" smooth="yes"/>
      <point x="376" y="732"/>
      <point x="419" y="669"/>
      <point x="419" y="598" type="curve" smooth="yes"/>
      <point x="419" y="518"/>
      <point x="362" y="459"/>
      <point x="266" y="408" type="curve"/>
      <point x="347" y="286"/>
      <point x="407" y="202"/>
      <point x="454" y="144" type="curve"/>
      <point x="502" y="205"/>
      <point x="541" y="286"/>
      <point x="569" y="377" type="curve"/>
      <point x="606" y="359" type="line"/>
      <point x="574" y="264"/>
      <point x="530" y="180"/>
      <point x="477" y="116" type="curve"/>
      <point x="538" y="46"/>
      <point x="574" y="30"/>
      <point x="611" y="30" type="curve" smooth="yes"/>
      <point x="637" y="30"/>
      <point x="650" y="33"/>
      <point x="667" y="39" type="curve"/>
    </contour>
    <contour>
      <point x="377" y="596" type="curve" smooth="yes"/>
      <point x="377" y="655"/>
      <point x="345" y="698"/>
      <point x="290" y="698" type="curve" smooth="yes"/>
      <point x="224" y="698"/>
      <point x="192" y="649"/>
      <point x="192" y="591" type="curve" smooth="yes"/>
      <point x="192" y="543"/>
      <point x="213" y="490"/>
      <point x="247" y="437" type="curve"/>
      <point x="340" y="486"/>
      <point x="377" y="534"/>
    </contour>
    <contour>
      <point x="427" y="113" type="curve"/>
      <point x="376" y="176"/>
      <point x="310" y="265"/>
      <point x="229" y="389" type="curve"/>
      <point x="121" y="332"/>
      <point x="81" y="271"/>
      <point x="81" y="193" type="curve" smooth="yes"/>
      <point x="81" y="100"/>
      <point x="150" y="26"/>
      <point x="247" y="26" type="curve" smooth="yes"/>
      <point x="314" y="26"/>
      <point x="375" y="58"/>
    </contour>
  </outline>
</glyph>
<glyph name="parenleft" format="1">
  <advance width="295"/>
  <unicode hex="0028"/>
  <outline>
    <contour>
      <point x="258" y="-95" type="curve"/>
      <point x="222" y="-95" type="line"/>
      <point x="140" y="0"/>
      <point x="62" y="135"/>
      <point x="62" y="320" type="curve" smooth="yes"/>
      <point x="62" y="505"/>
      <point x="140" y="640"/>
      <point x="222" y="735" type="curve"/>
      <point x="258" y="735" type="line"/>
      <point x="168" y="625"/>
      <point x="106" y="493"/>
      <point x="106" y="320" type="curve" smooth="yes"/>
      <point x="106" y="147"/>
      <point x="168" y="15"/>
    </contour>
  </outline>
</glyph>
<glyph name="parenright" format="1">
  <advance width="295"/>
  <unicode hex="0029"/>
  <outline>
    <contour>
      <point x="233" y="320" type="curve" smooth="yes"/>
      <point x="233" y="135"/>
      <point x="155" y="0"/>
      <point x="73" y="-95" type="curve"/>
      <point x="37" y="-95" type="line"/>
      <point x="127" y="15"/>
      <point x="189" y="147"/>
      <point x="189" y="320" type="curve" smooth="yes"/>
      <point x="189" y="493"/>
      <point x="127" y="625"/>
      <point x="37" y="735" type="curve"/>
      <point x="73" y="735" type="line"/>
      <point x="155" y="640"/>
      <point x="233" y="505"/>
    </contour>
  </outline>
</glyph>
<glyph name="asterisk" format="1">
  <advance width="440"/>
  <unicode hex="002A"/>
  <outline>
    <contour>
      <point x="395" y="580" type="line"/>
      <point x="236" y="542" type="line"/>
      <point x="345" y="418" type="line"/>
      <point x="308" y="391" type="line"/>
      <point x="220" y="534" type="line"/>
      <point x="132" y="391" type="line"/>
      <point x="95" y="418" type="line"/>
      <point x="204" y="542" type="line"/>
      <point x="45" y="580" type="line"/>
      <point x="59" y="623" type="line"/>
      <point x="211" y="557" type="line"/>
      <point x="197" y="720" type="line"/>
      <point x="243" y="720" type="line"/>
      <point x="229" y="557" type="line"/>
      <point x="381" y="623" type="line"/>
    </contour>
  </outline>
</glyph>
<glyph name="comma" format="1">
  <advance width="170"/>
  <unicode hex="002C"/>
  <outline>
    <contour>
      <point x="120" y="75" type="line"/>
      <point x="62" y="-120" type="line"/>
      <point x="33" y="-120" type="line"/>
      <point x="68" y="75" type="line"/>
    </contour>
  </outline>
</glyph>
<glyph name="period" format="1">
  <advance width="170"/>
  <unicode hex="002E"/>
  <outline>
    <contour>
      <point x="123" y="31" type="curve" smooth="yes"/>
      <point x="123" y="9"/>
      <point x="107" y="-7"/>
      <point x="85" y="-7" type="curve" smooth="yes"/>
      <point x="63" y="-7"/>
      <point x="47" y="9"/>
      <point x="47" y="31" type="curve" smooth="yes"/>
      <point x="47" y="53"/>
      <point x="63" y="69"/>
      <point x="85" y="69" type="curve" smooth="yes"/>
      <point x="107" y="69"/>
      <point x="123" y="53"/>
    </contour>
  </outline>
</glyph>
<glyph name="one" format="1">
  <advance width="440"/>
  <unicode hex="0031"/>
  <outline>
    <contour>
      <point x="414" y="0" type="line"/>
      <point x="55" y="0" type="line"/>
      <point x="55" y="36" type="line"/>
      <point x="216" y="36" type="line"/>
      <point x="216" y="684" type="line"/>
      <point x="43" y="684" type="line"/>
      <point x="43" y="720" type="line"/>
      <point x="258" y="720" type="line"/>
      <point x="258" y="36" type="line"/>
      <point x="414" y="36" type="line"/>
    </contour>
  </outline>
</glyph>
<glyph name="six" format="1">
  <advance width="545"/>
  <unicode hex="0036"/>
  <outline>
    <contour>
      <point x="512" y="220" type="curve" smooth="yes"/>
      <point x="512" y="82"/>
      <point x="404" y="-12"/>
      <point x="279" y="-12" type="curve" smooth="yes"/>
      <point x="152" y="-12"/>
      <point x="52" y="77"/>
      <point x="52" y="243" type="curve" smooth="yes"/>
      <point x="52" y="410"/>
      <point x="135" y="586"/>
      <point x="280" y="720" type="curve"/>
      <point x="337" y="720" type="line"/>
      <point x="206" y="607"/>
      <point x="121" y="461"/>
      <point x="102" y="342" type="curve"/>
      <point x="109" y="342" type="line"/>
      <point x="156" y="404"/>
      <point x="212" y="442"/>
      <point x="297" y="442" type="curve" smooth="yes"/>
      <point x="417" y="442"/>
      <point x="512" y="358"/>
    </contour>
    <contour>
      <point x="468" y="218" type="curve" smooth="yes"/>
      <point x="468" y="334"/>
      <point x="398" y="406"/>
      <point x="290" y="406" type="curve" smooth="yes"/>
      <point x="179" y="406"/>
      <point x="96" y="323"/>
      <point x="96" y="217" type="curve" smooth="yes"/>
      <point x="96" y="101"/>
      <point x="177" y="24"/>
      <point x="281" y="24" type="curve" smooth="yes"/>
      <point x="385" y="24"/>
      <point x="468" y="99"/>
    </contour>
  </outline>
</glyph>
<glyph name="eight" format="1">
  <advance width="580"/>
  <unicode hex="0038"/>
  <outline>
    <contour>
      <point x="527" y="194" type="curve" smooth="yes"/>
      <point x="527" y="64"/>
      <point x="413" y="-12"/>
      <point x="290" y="-12" type="curve" smooth="yes"/>
      <point x="167" y="-12"/>
      <point x="53" y="62"/>
      <point x="53" y="192" type="curve" smooth="yes"/>
      <point x="53" y="293"/>
      <point x="121" y="359"/>
      <point x="207" y="382" type="curve"/>
      <point x="207" y="389" type="line"/>
      <point x="133" y="413"/>
      <point x="73" y="469"/>
      <point x="73" y="551" type="curve" smooth="yes"/>
      <point x="73" y="658"/>
      <point x="170" y="732"/>
      <point x="290" y="732" type="curve" smooth="yes"/>
      <point x="410" y="732"/>
      <point x="507" y="660"/>
      <point x="507" y="553" type="curve" smooth="yes"/>
      <point x="507" y="471"/>
      <point x="447" y="414"/>
      <point x="373" y="389" type="curve"/>
      <point x="373" y="382" type="line"/>
      <point x="459" y="359"/>
      <point x="527" y="295"/>
    </contour>
    <contour>
      <point x="463" y="547" type="curve" smooth="yes"/>
      <point x="463" y="636"/>
      <point x="394" y="696"/>
      <point x="290" y="696" type="curve" smooth="yes"/>
      <point x="186" y="696"/>
      <point x="117" y="638"/>
      <point x="117" y="549" type="curve" smooth="yes"/>
      <point x="117" y="455"/>
      <point x="196" y="398"/>
      <point x="290" y="398" type="curve" smooth="yes"/>
      <point x="384" y="398"/>
      <point x="463" y="453"/>
    </contour>
    <contour>
      <point x="483" y="194" type="curve" smooth="yes"/>
      <point x="483" y="306"/>
      <point x="394" y="370"/>
      <point x="290" y="370" type="curve" smooth="yes"/>
      <point x="186" y="370"/>
      <point x="97" y="308"/>
      <point x="97" y="196" type="curve" smooth="yes"/>
      <point x="97" y="86"/>
      <point x="183" y="24"/>
      <point x="290" y="24" type="curve" smooth="yes"/>
      <point x="397" y="24"/>
      <point x="483" y="84"/>
    </contour>
  </outline>
</glyph>
<glyph name="equal" format="1">
  <advance width="600"/>
  <unicode hex="003D"/>
  <outline>
    <contour>
      <point x="539" y="450" type="line"/>
      <point x="61" y="450" type="line"/>
      <point x="61" y="492" type="line"/>
      <point x="539" y="492" type="line"/>
    </contour>
    <contour>
      <point x="539" y="218" type="line"/>
      <point x="61" y="218" type="line"/>
      <point x="61" y="260" type="line"/>
      <point x="539" y="260" type="line"/>
    </contour>
  </outline>
</glyph>
<glyph name="greater" format="1">
  <advance width="600"/>
  <unicode hex="003E"/>
  <outline>
    <contour>
      <point x="549" y="335" type="line"/>
      <point x="60" y="109" type="line"/>
      <point x="60" y="151" type="line"/>
      <point x="506" y="355" type="line"/>
      <point x="60" y="559" type="line"/>
      <point x="60" y="601" type="line"/>
      <point x="549" y="375" type="line"/>
    </contour>
  </outline>
</glyph>
<glyph name="question" format="1">
  <advance width="425"/>
  <unicode hex="003F"/>
  <outline>
    <contour>
      <point x="375" y="580" type="curve" smooth="yes"/>
      <point x="375" y="506"/>
      <point x="347" y="472"/>
      <point x="277" y="399" type="curve" smooth="yes"/>
      <point x="222" y="342"/>
      <point x="208" y="309"/>
      <point x="208" y="198" type="curve"/>
      <point x="180" y="198" type="line"/>
      <point x="178" y="322"/>
      <point x="189" y="362"/>
      <point x="253" y="427" type="curve" smooth="yes"/>
      <point x="307" y="482"/>
      <point x="331" y="522"/>
      <point x="331" y="578" type="curve" smooth="yes"/>
      <point x="331" y="646"/>
      <point x="286" y="696"/>
      <point x="211" y="696" type="curve" smooth="yes"/>
      <point x="131" y="696"/>
      <point x="90" y="659"/>
      <point x="58" y="586" type="curve"/>
      <point x="24" y="601" type="line"/>
      <point x="59" y="683"/>
      <point x="117" y="732"/>
      <point x="213" y="732" type="curve" smooth="yes"/>
      <point x="311" y="732"/>
      <point x="375" y="663"/>
    </contour>
    <contour>
      <point x="232" y="31" type="curve" smooth="yes"/>
      <point x="232" y="9"/>
      <point x="216" y="-7"/>
      <point x="194" y="-7" type="curve" smooth="yes"/>
      <point x="172" y="-7"/>
      <point x="156" y="9"/>
      <point x="156" y="31" type="curve" smooth="yes"/>
      <point x="156" y="53"/>
      <point x="172" y="69"/>
      <point x="194" y="69" type="curve" smooth="yes"/>
      <point x="216" y="69"/>
      <point x="232" y="53"/>
    </contour>
  </outline>
</glyph>
<glyph name="at" format="1">
  <advance width="1010"/>
  <unicode hex="0040"/>
  <outline>
    <contour>
      <point x="949" y="333" type="curve" smooth="yes"/>
      <point x="949" y="159"/>
      <point x="837" y="33"/>
      <point x="725" y="33" type="curve" smooth="yes"/>
      <point x="649" y="33"/>
      <point x="611" y="81"/>
      <point x="609" y="157" type="curve"/>
      <point x="604" y="157" type="line"/>
      <point x="556" y="78"/>
      <point x="499" y="33"/>
      <point x="439" y="33" type="curve" smooth="yes"/>
      <point x="360" y="33"/>
      <point x="306" y="98"/>
      <point x="306" y="205" type="curve" smooth="yes"/>
      <point x="306" y="371"/>
      <point x="393" y="512"/>
      <point x="505" y="512" type="curve" smooth="yes"/>
      <point x="577" y="512"/>
      <point x="615" y="458"/>
      <point x="636" y="388" type="curve"/>
      <point x="641" y="387" type="line"/>
      <point x="662" y="510" type="line"/>
      <point x="698" y="491" type="line"/>
      <point x="646" y="197" type="line" smooth="yes"/>
      <point x="633" y="124"/>
      <point x="656" y="60"/>
      <point x="729" y="60" type="curve" smooth="yes"/>
      <point x="820" y="60"/>
      <point x="914" y="174"/>
      <point x="914" y="331" type="curve" smooth="yes"/>
      <point x="914" y="559"/>
      <point x="752" y="702"/>
      <point x="522" y="702" type="curve" smooth="yes"/>
      <point x="283" y="702"/>
      <point x="97" y="509"/>
      <point x="97" y="266" type="curve" smooth="yes"/>
      <point x="97" y="10"/>
      <point x="263" y="-162"/>
      <point x="513" y="-162" type="curve" smooth="yes"/>
      <point x="635" y="-162"/>
      <point x="721" y="-138"/>
      <point x="811" y="-89" type="curve"/>
      <point x="826" y="-114" type="line"/>
      <point x="733" y="-164"/>
      <point x="641" y="-192"/>
      <point x="511" y="-192" type="curve" smooth="yes"/>
      <point x="241" y="-192"/>
      <point x="61" y="-10"/>
      <point x="61" y="265" type="curve" smooth="yes"/>
      <point x="61" y="529"/>
      <point x="271" y="732"/>
      <point x="525" y="732" type="curve" smooth="yes"/>
      <point x="764" y="732"/>
      <point x="949" y="574"/>
    </contour>
    <contour>
      <point x="627" y="312" type="curve" smooth="yes"/>
      <point x="627" y="393"/>
      <point x="581" y="479"/>
      <point x="508" y="479" type="curve" smooth="yes"/>
      <point x="415" y="479"/>
      <point x="345" y="364"/>
      <point x="345" y="210" type="curve" smooth="yes"/>
      <point x="345" y="122"/>
      <point x="382" y="64"/>
      <point x="447" y="64" type="curve" smooth="yes"/>
      <point x="537" y="64"/>
      <point x="627" y="196"/>
    </contour>
  </outline>
</glyph>
<glyph name="A" format="1">
  <advance width="660"/>
  <unicode hex="0041"/>
  <outline>
    <contour>
      <point x="628" y="0" type="line"/>
      <point x="583" y="0" type="line"/>
      <point x="510" y="201" type="line"/>
      <point x="148" y="201" type="line"/>
      <point x="75" y="0" type="line"/>
      <point x="32" y="0" type="line"/>
      <point x="298" y="724" type="line"/>
      <point x="362" y="724" type="line"/>
    </contour>
    <contour>
      <point x="497" y="237" type="line"/>
      <point x="333" y="686" type="line"/>
      <point x="325" y="686" type="line"/>
      <point x="161" y="237" type="line"/>
    </contour>
  </outline>
</glyph>
<glyph name="B" format="1">
  <advance width="605"/>
  <unicode hex="0042"/>
  <outline>
    <contour>
      <point x="555" y="200" type="curve" smooth="yes"/>
      <point x="555" y="70"/>
      <point x="451" y="0"/>
      <point x="319" y="0" type="curve" smooth="yes"/>
      <point x="92" y="0" type="line"/>
      <point x="92" y="720" type="line"/>
      <point x="325" y="720" type="line" smooth="yes"/>
      <point x="448" y="720"/>
      <point x="525" y="654"/>
      <point x="525" y="552" type="curve" smooth="yes"/>
      <point x="525" y="454"/>
      <point x="461" y="410"/>
      <point x="393" y="393" type="curve"/>
      <point x="393" y="389" type="line"/>
      <point x="488" y="371"/>
      <point x="555" y="315"/>
    </contour>
    <contour>
      <point x="481" y="550" type="curve" smooth="yes"/>
      <point x="481" y="637"/>
      <point x="421" y="684"/>
      <point x="321" y="684" type="curve" smooth="yes"/>
      <point x="135" y="684" type="line"/>
      <point x="135" y="406" type="line"/>
      <point x="314" y="406" type="line" smooth="yes"/>
      <point x="415" y="406"/>
      <point x="481" y="452"/>
    </contour>
    <contour>
      <point x="511" y="197" type="curve" smooth="yes"/>
      <point x="511" y="304"/>
      <point x="455" y="370"/>
      <point x="319" y="370" type="curve" smooth="yes"/>
      <point x="135" y="370" type="line"/>
      <point x="135" y="36" type="line"/>
      <point x="321" y="36" type="line" smooth="yes"/>
      <point x="436" y="36"/>
      <point x="511" y="90"/>
    </contour>
  </outline>
</glyph>
<glyph name="D" format="1">
  <advance width="616"/>
  <unicode hex="0044"/>
  <outline>
    <contour>
      <point x="559" y="360" type="line" smooth="yes"/>
      <point x="559" y="135"/>
      <point x="446" y="0"/>
      <point x="243" y="0" type="curve" smooth="yes"/>
      <point x="92" y="0" type="line"/>
      <point x="92" y="720" type="line"/>
      <point x="248" y="720" type="line" smooth="yes"/>
      <point x="452" y="720"/>
      <point x="559" y="585"/>
      <point x="559" y="362" type="curve" smooth="yes"/>
    </contour>
    <contour>
      <point x="515" y="358" type="curve" smooth="yes"/>
      <point x="515" y="360" type="line" smooth="yes"/>
      <point x="515" y="570"/>
      <point x="419" y="684"/>
      <point x="243" y="684" type="curve" smooth="yes"/>
      <point x="136" y="684" type="line"/>
      <point x="136" y="36" type="line"/>
      <point x="248" y="36" type="line" smooth="yes"/>
      <point x="415" y="36"/>
      <point x="515" y="150"/>
    </contour>
  </outline>
</glyph>
<glyph name="F" format="1">
  <advance width="522"/>
  <unicode hex="0046"/>
  <outline>
    <contour>
      <point x="497" y="684" type="line"/>
      <point x="136" y="684" type="line"/>
      <point x="136" y="381" type="line"/>
      <point x="434" y="381" type="line"/>
      <point x="434" y="345" type="line"/>
      <point x="136" y="345" type="line"/>
      <point x="136" y="0" type="line"/>
      <point x="92" y="0" type="line"/>
      <point x="92" y="720" type="line"/>
      <point x="497" y="720" type="line"/>
    </contour>
  </outline>
</glyph>
<glyph name="I" format="1">
  <advance width="372"/>
  <unicode hex="0049"/>
  <outline>
    <contour>
      <point x="312" y="0" type="line"/>
      <point x="60" y="0" type="line"/>
      <point x="60" y="31" type="line"/>
      <point x="164" y="31" type="line"/>
      <point x="164" y="689" type="line"/>
      <point x="60" y="689" type="line"/>
      <point x="60" y="720" type="line"/>
      <point x="312" y="720" type="line"/>
      <point x="312" y="689" type="line"/>
      <point x="208" y="689" type="line"/>
      <point x="208" y="31" type="line"/>
      <point x="312" y="31" type="line"/>
    </contour>
  </outline>
</glyph>
<glyph name="J" format="1">
  <advance width="470"/>
  <unicode hex="004A"/>
  <outline>
    <contour>
      <point x="383" y="193" type="line" smooth="yes"/>
      <point x="383" y="68"/>
      <point x="321" y="-12"/>
      <point x="209" y="-12" type="curve" smooth="yes"/>
      <point x="103" y="-12"/>
      <point x="31" y="43"/>
      <point x="28" y="172" type="curve"/>
      <point x="69" y="191" type="line"/>
      <point x="71" y="61"/>
      <point x="132" y="24"/>
      <point x="211" y="24" type="curve" smooth="yes"/>
      <point x="287" y="24"/>
      <point x="339" y="76"/>
      <point x="339" y="191" type="curve" smooth="yes"/>
      <point x="339" y="720" type="line"/>
      <point x="383" y="720" type="line"/>
    </contour>
  </outline>
</glyph>
<glyph name="M" format="1">
  <advance width="812"/>
  <unicode hex="004D"/>
  <outline>
    <contour>
      <point x="720" y="0" type="line"/>
      <point x="676" y="0" type="line"/>
      <point x="676" y="688" type="line"/>
      <point x="665" y="688" type="line"/>
      <point x="434" y="0" type="line"/>
      <point x="376" y="0" type="line"/>
      <point x="145" y="688" type="line"/>
      <point x="134" y="688" type="line"/>
      <point x="134" y="0" type="line"/>
      <point x="92" y="0" type="line"/>
      <point x="92" y="720" type="line"/>
      <point x="180" y="720" type="line"/>
      <point x="403" y="44" type="line"/>
      <point x="411" y="44" type="line"/>
      <point x="634" y="720" type="line"/>
      <point x="720" y="720" type="line"/>
    </contour>
  </outline>
</glyph>
<glyph name="P" format="1">
  <advance width="564"/>
  <unicode hex="0050"/>
  <outline>
    <contour>
      <point x="519" y="519" type="curve" smooth="yes"/>
      <point x="519" y="390"/>
      <point x="437" y="316"/>
      <point x="288" y="316" type="curve" smooth="yes"/>
      <point x="136" y="316" type="line"/>
      <point x="136" y="0" type="line"/>
      <point x="92" y="0" type="line"/>
      <point x="92" y="720" type="line"/>
      <point x="292" y="720" type="line" smooth="yes"/>
      <point x="436" y="720"/>
      <point x="519" y="648"/>
    </contour>
    <contour>
      <point x="475" y="517" type="curve" smooth="yes"/>
      <point x="475" y="624"/>
      <point x="412" y="684"/>
      <point x="288" y="684" type="curve" smooth="yes"/>
      <point x="136" y="684" type="line"/>
      <point x="136" y="352" type="line"/>
      <point x="293" y="352" type="line" smooth="yes"/>
      <point x="410" y="352"/>
      <point x="475" y="406"/>
    </contour>
  </outline>
</glyph>
<glyph name="Q" format="1">
  <advance width="608"/>
  <unicode hex="0051"/>
  <outline>
    <contour>
      <point x="592" y="-94" type="line"/>
      <point x="579" y="-98"/>
      <point x="564" y="-99"/>
      <point x="552" y="-99" type="curve" smooth="yes"/>
      <point x="505" y="-99"/>
      <point x="480" y="-84"/>
      <point x="449" y="-39" type="curve" smooth="yes"/>
      <point x="411" y="17" type="line"/>
      <point x="379" y="-2"/>
      <point x="344" y="-12"/>
      <point x="304" y="-12" type="curve" smooth="yes"/>
      <point x="147" y="-12"/>
      <point x="57" y="135"/>
      <point x="57" y="358" type="curve" smooth="yes"/>
      <point x="57" y="360" type="line" smooth="yes"/>
      <point x="57" y="583"/>
      <point x="147" y="732"/>
      <point x="304" y="732" type="curve" smooth="yes"/>
      <point x="461" y="732"/>
      <point x="551" y="585"/>
      <point x="551" y="362" type="curve" smooth="yes"/>
      <point x="551" y="360" type="line" smooth="yes"/>
      <point x="551" y="214"/>
      <point x="510" y="100"/>
      <point x="440" y="38" type="curve"/>
      <point x="482" y="-20" type="line" smooth="yes"/>
      <point x="503" y="-48"/>
      <point x="523" y="-63"/>
      <point x="554" y="-63" type="curve" smooth="yes"/>
      <point x="566" y="-63"/>
      <point x="579" y="-61"/>
      <point x="592" y="-58" type="curve"/>
    </contour>
    <contour>
      <point x="507" y="358" type="curve" smooth="yes"/>
      <point x="507" y="360" type="line" smooth="yes"/>
      <point x="507" y="552"/>
      <point x="440" y="696"/>
      <point x="304" y="696" type="curve" smooth="yes"/>
      <point x="168" y="696"/>
      <point x="101" y="554"/>
      <point x="101" y="362" type="curve" smooth="yes"/>
      <point x="101" y="360" type="line" smooth="yes"/>
      <point x="101" y="167"/>
      <point x="168" y="23"/>
      <point x="304" y="23" type="curve" smooth="yes"/>
      <point x="337" y="23"/>
      <point x="366" y="31"/>
      <point x="391" y="46" type="curve"/>
      <point x="294" y="188" type="line"/>
      <point x="319" y="204" type="line"/>
      <point x="419" y="67" type="line"/>
      <point x="479" y="124"/>
      <point x="507" y="229"/>
    </contour>
  </outline>
</glyph>
<glyph name="S" format="1">
  <advance width="555"/>
  <unicode hex="0053"/>
  <outline>
    <contour>
      <point x="502" y="176" type="curve" smooth="yes"/>
      <point x="502" y="53"/>
      <point x="398" y="-12"/>
      <point x="286" y="-12" type="curve" smooth="yes"/>
      <point x="163" y="-12"/>
      <point x="81" y="46"/>
      <point x="50" y="160" type="curve"/>
      <point x="89" y="176" type="line"/>
      <point x="121" y="71"/>
      <point x="190" y="24"/>
      <point x="286" y="24" type="curve" smooth="yes"/>
      <point x="380" y="24"/>
      <point x="458" y="78"/>
      <point x="458" y="173" type="curve" smooth="yes"/>
      <point x="458" y="260"/>
      <point x="422" y="305"/>
      <point x="276" y="355" type="curve" smooth="yes"/>
      <point x="125" y="407"/>
      <point x="72" y="463"/>
      <point x="72" y="564" type="curve" smooth="yes"/>
      <point x="72" y="653"/>
      <point x="149" y="732"/>
      <point x="265" y="732" type="curve" smooth="yes"/>
      <point x="363" y="732"/>
      <point x="442" y="684"/>
      <point x="477" y="586" type="curve"/>
      <point x="438" y="570" type="line"/>
      <point x="406" y="648"/>
      <point x="355" y="696"/>
      <point x="265" y="696" type="curve" smooth="yes"/>
      <point x="167" y="696"/>
      <point x="116" y="633"/>
      <point x="116" y="567" type="curve" smooth="yes"/>
      <point x="116" y="484"/>
      <point x="159" y="442"/>
      <point x="293" y="395" type="curve" smooth="yes"/>
      <point x="450" y="340"/>
      <point x="502" y="282"/>
    </contour>
  </outline>
</glyph>
<glyph name="Z" format="1">
  <advance width="540"/>
  <unicode hex="005A"/>
  <outline>
    <contour>
      <point x="502" y="0" type="line"/>
      <point x="38" y="0" type="line"/>
      <point x="38" y="31" type="line"/>
      <point x="452" y="684" type="line"/>
      <point x="58" y="684" type="line"/>
      <point x="58" y="720" type="line"/>
      <point x="502" y="720" type="line"/>
      <point x="502" y="689" type="line"/>
      <point x="88" y="36" type="line"/>
      <point x="502" y="36" type="line"/>
    </contour>
  </outline>
</glyph>
<glyph name="bracketleft" format="1">
  <advance width="324"/>
  <unicode hex="005B"/>
  <outline>
    <contour>
      <point x="298" y="-80" type="line"/>
      <point x="72" y="-87" type="line"/>
      <point x="72" y="727" type="line"/>
      <point x="298" y="720" type="line"/>
      <point x="298" y="688" type="line"/>
      <point x="113" y="695" type="line"/>
      <point x="113" y="-55" type="line"/>
      <point x="298" y="-48" type="line"/>
    </contour>
  </outline>
</glyph>
<glyph name="grave" format="1">
  <advance width="500"/>
  <unicode hex="0060"/>
  <outline>
    <contour>
      <point x="322" y="592" type="line"/>
      <point x="293" y="592" type="line"/>
      <point x="160" y="743" type="line"/>
      <point x="227" y="743" type="line"/>
    </contour>
  </outline>
</glyph>
<glyph name="d" format="1">
  <advance width="502"/>
  <unicode hex="0064"/>
  <outline>
    <contour>
      <point x="426" y="13" type="line"/>
      <point x="386" y="-9" type="line"/>
      <point x="386" y="118" type="line"/>
      <point x="380" y="118" type="line"/>
      <point x="340" y="40"/>
      <point x="298" y="-10"/>
      <point x="221" y="-10" type="curve" smooth="yes"/>
      <point x="126" y="-10"/>
      <point x="46" y="79"/>
      <point x="46" y="254" type="curve" smooth="yes"/>
      <point x="46" y="256" type="line" smooth="yes"/>
      <point x="46" y="430"/>
      <point x="133" y="522"/>
      <point x="223" y="522" type="curve" smooth="yes"/>
      <point x="296" y="522"/>
      <point x="343" y="472"/>
      <point x="380" y="396" type="curve"/>
      <point x="386" y="396" type="line"/>
      <point x="386" y="740" type="line"/>
      <point x="426" y="762" type="line"/>
    </contour>
    <contour>
      <point x="389" y="256" type="curve" smooth="yes"/>
      <point x="389" y="374"/>
      <point x="320" y="490"/>
      <point x="228" y="490" type="curve" smooth="yes"/>
      <point x="152" y="490"/>
      <point x="86" y="415"/>
      <point x="86" y="257" type="curve" smooth="yes"/>
      <point x="86" y="91"/>
      <point x="155" y="22"/>
      <point x="229" y="22" type="curve" smooth="yes"/>
      <point x="319" y="22"/>
      <point x="389" y="138"/>
    </contour>
  </outline>
</glyph>
<glyph name="k" format="1">
  <advance width="432"/>
  <unicode hex="006B"/>
  <outline>
    <contour>
      <point x="423" y="0" type="line"/>
      <point x="372" y="0" type="line"/>
      <point x="138" y="257" type="line"/>
      <point x="138" y="260" type="line"/>
      <point x="368" y="512" type="line"/>
      <point x="416" y="512" type="line"/>
      <point x="184" y="260" type="line"/>
    </contour>
    <contour>
      <point x="116" y="0" type="line"/>
      <point x="76" y="0" type="line"/>
      <point x="76" y="740" type="line"/>
      <point x="116" y="762" type="line"/>
    </contour>
  </outline>
</glyph>
<glyph name="m" format="1">
  <advance width="760"/>
  <unicode hex="006D"/>
  <outline>
    <contour>
      <point x="688" y="0" type="line"/>
      <point x="648" y="0" type="line"/>
      <point x="648" y="398" type="line" smooth="yes"/>
      <point x="648" y="455"/>
      <point x="624" y="485"/>
      <point x="576" y="485" type="curve" smooth="yes"/>
      <point x="521" y="485"/>
      <point x="459" y="433"/>
      <point x="402" y="337" type="curve"/>
      <point x="402" y="0" type="line"/>
      <point x="362" y="0" type="line"/>
      <point x="362" y="398" type="line" smooth="yes"/>
      <point x="362" y="455"/>
      <point x="338" y="485"/>
      <point x="290" y="485" type="curve" smooth="yes"/>
      <point x="235" y="485"/>
      <point x="173" y="433"/>
      <point x="116" y="337" type="curve"/>
      <point x="116" y="0" type="line"/>
      <point x="76" y="0" type="line"/>
      <point x="76" y="499" type="line"/>
      <point x="116" y="521" type="line"/>
      <point x="116" y="384" type="line"/>
      <point x="122" y="384" type="line"/>
      <point x="174" y="462"/>
      <point x="230" y="517"/>
      <point x="302" y="517" type="curve" smooth="yes"/>
      <point x="372" y="517"/>
      <point x="402" y="469"/>
      <point x="402" y="406" type="curve" smooth="yes"/>
      <point x="402" y="386" type="line"/>
      <point x="408" y="386" type="line"/>
      <point x="460" y="464"/>
      <point x="516" y="517"/>
      <point x="588" y="517" type="curve" smooth="yes"/>
      <point x="658" y="517"/>
      <point x="688" y="469"/>
      <point x="688" y="406" type="curve" smooth="yes"/>
    </contour>
  </outline>
</glyph>
<glyph name="r" format="1">
  <advance width="355"/>
  <unicode hex="0072"/>
  <outline>
    <contour>
      <point x="337" y="472" type="line"/>
      <point x="250" y="451"/>
      <point x="170" y="369"/>
      <point x="116" y="271" type="curve"/>
      <point x="116" y="0" type="line"/>
      <point x="76" y="0" type="line"/>
      <point x="76" y="499" type="line"/>
      <point x="116" y="521" type="line"/>
      <point x="116" y="318" type="line"/>
      <point x="122" y="318" type="line"/>
      <point x="190" y="431"/>
      <point x="263" y="505"/>
      <point x="337" y="521" type="curve"/>
    </contour>
  </outline>
</glyph>
<glyph name="s" format="1">
  <advance width="393"/>
  <unicode hex="0073"/>
  <outline>
    <contour>
      <point x="355" y="127" type="curve" smooth="yes"/>
      <point x="355" y="38"/>
      <point x="280" y="-8"/>
      <point x="199" y="-8" type="curve" smooth="yes"/>
      <point x="131" y="-8"/>
      <point x="77" y="15"/>
      <point x="35" y="47" type="curve"/>
      <point x="52" y="78" type="line"/>
      <point x="95" y="45"/>
      <point x="141" y="22"/>
      <point x="199" y="22" type="curve" smooth="yes"/>
      <point x="264" y="22"/>
      <point x="316" y="59"/>
      <point x="316" y="124" type="curve" smooth="yes"/>
      <point x="316" y="184"/>
      <point x="287" y="213"/>
      <point x="190" y="249" type="curve" smooth="yes"/>
      <point x="91" y="286"/>
      <point x="49" y="327"/>
      <point x="49" y="395" type="curve" smooth="yes"/>
      <point x="49" y="462"/>
      <point x="104" y="520"/>
      <point x="188" y="520" type="curve" smooth="yes"/>
      <point x="248" y="520"/>
      <point x="285" y="506"/>
      <point x="338" y="473" type="curve"/>
      <point x="320" y="441" type="line"/>
      <point x="275" y="473"/>
      <point x="236" y="490"/>
      <point x="188" y="490" type="curve" smooth="yes"/>
      <point x="122" y="490"/>
      <point x="87" y="446"/>
      <point x="87" y="398" type="curve" smooth="yes"/>
      <point x="87" y="344"/>
      <point x="124" y="315"/>
      <point x="206" y="285" type="curve" smooth="yes"/>
      <point x="319" y="244"/>
      <point x="355" y="201"/>
    </contour>
  </outline>
</glyph>
<glyph name="u" format="1">
  <advance width="478"/>
  <unicode hex="0075"/>
  <outline>
    <contour>
      <point x="402" y="13" type="line"/>
      <point x="362" y="-9" type="line"/>
      <point x="362" y="128" type="line"/>
      <point x="356" y="128" type="line"/>
      <point x="304" y="50"/>
      <point x="246" y="-5"/>
      <point x="174" y="-5" type="curve" smooth="yes"/>
      <point x="104" y="-5"/>
      <point x="72" y="43"/>
      <point x="72" y="106" type="curve" smooth="yes"/>
      <point x="72" y="512" type="line"/>
      <point x="112" y="512" type="line"/>
      <point x="112" y="114" type="line" smooth="yes"/>
      <point x="112" y="57"/>
      <point x="138" y="27"/>
      <point x="186" y="27" type="curve" smooth="yes"/>
      <point x="241" y="27"/>
      <point x="305" y="79"/>
      <point x="362" y="175" type="curve"/>
      <point x="362" y="512" type="line"/>
      <point x="402" y="512" type="line"/>
    </contour>
  </outline>
</glyph>
<glyph name="z" format="1">
  <advance width="405"/>
  <unicode hex="007A"/>
  <outline>
    <contour>
      <point x="371" y="0" type="line"/>
      <point x="32" y="0" type="line"/>
      <point x="32" y="27" type="line"/>
      <point x="324" y="475" type="line"/>
      <point x="47" y="475" type="line"/>
      <point x="47" y="507" type="line"/>
      <point x="371" y="507" type="line"/>
      <point x="371" y="480" type="line"/>
      <point x="79" y="32" type="line"/>
      <point x="371" y="32" type="line"/>
    </contour>
  </outline>
</glyph>
<glyph name="asciitilde" format="1">
  <advance width="380"/>
  <unicode hex="007E"/>
  <outline>
    <contour>
      <point x="338" y="325" type="line"/>
      <point x="337" y="260"/>
      <point x="312" y="230"/>
      <point x="263" y="230" type="curve" smooth="yes"/>
      <point x="211" y="230"/>
      <point x="155" y="288"/>
      <point x="115" y="288" type="curve" smooth="yes"/>
      <point x="85" y="288"/>
      <point x="72" y="271"/>
      <point x="72" y="232" type="curve"/>
      <point x="42" y="232" type="line"/>
      <point x="43" y="297"/>
      <point x="68" y="327"/>
      <point x="117" y="327" type="curve" smooth="yes"/>
      <point x="169" y="327"/>
      <point x="225" y="269"/>
      <point x="265" y="269" type="curve" smooth="yes"/>
      <point x="295" y="269"/>
      <point x="308" y="286"/>
      <point x="308" y="325" type="curve"/>
    </contour>
  </outline>
</glyph>
<glyph name="sterling" format="1">
  <advance width="560"/>
  <unicode hex="00A3"/>
  <outline>
    <contour>
      <point x="529" y="164" type="line"/>
      <point x="510" y="46"/>
      <point x="466" y="-6"/>
      <point x="366" y="-6" type="curve" smooth="yes"/>
      <point x="297" y="-6"/>
      <point x="244" y="22"/>
      <point x="184" y="68" type="curve"/>
      <point x="155" y="35"/>
      <point x="114" y="12"/>
      <point x="65" y="-6" type="curve"/>
      <point x="65" y="34" type="line"/>
      <point x="130" y="56"/>
      <point x="186" y="100"/>
      <point x="186" y="204" type="curve" smooth="yes"/>
      <point x="186" y="254"/>
      <point x="176" y="298"/>
      <point x="164" y="340" type="curve"/>
      <point x="41" y="340" type="line"/>
      <point x="41" y="375" type="line"/>
      <point x="153" y="375" type="line"/>
      <point x="136" y="430"/>
      <point x="118" y="482"/>
      <point x="118" y="540" type="curve" smooth="yes"/>
      <point x="118" y="644"/>
      <point x="182" y="732"/>
      <point x="309" y="732" type="curve" smooth="yes"/>
      <point x="392" y="732"/>
      <point x="452" y="703"/>
      <point x="496" y="643" type="curve"/>
      <point x="466" y="615" type="line"/>
      <point x="425" y="668"/>
      <point x="378" y="696"/>
      <point x="307" y="696" type="curve" smooth="yes"/>
      <point x="207" y="696"/>
      <point x="161" y="630"/>
      <point x="161" y="542" type="curve" smooth="yes"/>
      <point x="161" y="486"/>
      <point x="180" y="433"/>
      <point x="198" y="375" type="curve"/>
      <point x="391" y="375" type="line"/>
      <point x="391" y="340" type="line"/>
      <point x="209" y="340" type="line"/>
      <point x="220" y="300"/>
      <point x="229" y="255"/>
      <point x="229" y="206" type="curve" smooth="yes"/>
      <point x="229" y="165"/>
      <point x="221" y="131"/>
      <point x="206" y="102" type="curve"/>
      <point x="264" y="53"/>
      <point x="320" y="30"/>
      <point x="370" y="30" type="curve" smooth="yes"/>
      <point x="437" y="30"/>
      <point x="476" y="64"/>
      <point x="493" y="175" type="curve"/>
    </contour>
  </outline>
</glyph>
<glyph name="acute" format="1">
  <advance width="500"/>
  <unicode hex="00B4"/>
  <outline>
    <contour>
      <point x="340" y="743" type="line"/>
      <point x="207" y="592" type="line"/>
      <point x="178" y="592" type="line"/>
      <point x="273" y="743" type="line"/>
    </contour>
  </outline>
</glyph>
<glyph name="paragraph" format="1">
  <advance width="520"/>
  <unicode hex="00B6"/>
  <outline>
    <contour>
      <point x="430" y="0" type="line"/>
      <point x="389" y="0" type="line"/>
      <point x="389" y="684" type="line"/>
      <point x="285" y="684" type="line"/>
      <point x="285" y="0" type="line"/>
      <point x="244" y="0" type="line"/>
      <point x="244" y="379" type="line"/>
      <point x="111" y="381"/>
      <point x="38" y="445"/>
      <point x="38" y="548" type="curve" smooth="yes"/>
      <point x="38" y="659"/>
      <point x="118" y="720"/>
      <point x="247" y="720" type="curve" smooth="yes"/>
      <point x="430" y="720" type="line"/>
    </contour>
  </outline>
</glyph>
<glyph name="ordmasculine" format="1">
  <advance width="370"/>
  <unicode hex="00BA"/>
  <outline>
    <contour>
      <point x="318" y="549" type="curve" smooth="yes"/>
      <point x="318" y="445"/>
      <point x="264" y="372"/>
      <point x="185" y="372" type="curve" smooth="yes"/>
      <point x="106" y="372"/>
      <point x="52" y="446"/>
      <point x="52" y="550" type="curve" smooth="yes"/>
      <point x="52" y="654"/>
      <point x="106" y="727"/>
      <point x="185" y="727" type="curve" smooth="yes"/>
      <point x="264" y="727"/>
      <point x="318" y="653"/>
    </contour>
    <contour>
      <point x="311" y="261" type="line"/>
      <point x="59" y="261" type="line"/>
      <point x="59" y="292" type="line"/>
      <point x="311" y="292" type="line"/>
    </contour>
    <contour>
      <point x="283" y="548" type="curve" smooth="yes"/>
      <point x="283" y="635"/>
      <point x="247" y="698"/>
      <point x="185" y="698" type="curve" smooth="yes"/>
      <point x="123" y="698"/>
      <point x="87" y="636"/>
      <point x="87" y="551" type="curve" smooth="yes"/>
      <point x="87" y="464"/>
      <point x="123" y="401"/>
      <point x="185" y="401" type="curve" smooth="yes"/>
      <point x="247" y="401"/>
      <point x="283" y="463"/>
    </contour>
  </outline>
</glyph>
<glyph name="guillemotright" format="1">
  <advance width="440"/>
  <unicode hex="00BB"/>
  <outline>
    <contour>
      <point x="408" y="256" type="line"/>
      <point x="253" y="80" type="line"/>
      <point x="219" y="80" type="line"/>
      <point x="356" y="256" type="line"/>
      <point x="219" y="432" type="line"/>
      <point x="253" y="432" type="line"/>
    </contour>
    <contour>
      <point x="225" y="256" type="line"/>
      <point x="70" y="80" type="line"/>
      <point x="36" y="80" type="line"/>
      <point x="173" y="256" type="line"/>
      <point x="36" y="432" type="line"/>
      <point x="70" y="432" type="line"/>
    </contour>
  </outline>
</glyph>
<glyph name="questiondown" format="1">
  <advance width="425"/>
  <unicode hex="00BF"/>
  <outline>
    <contour>
      <point x="268" y="690" type="curve" smooth="yes"/>
      <point x="268" y="669"/>
      <point x="252" y="653"/>
      <point x="231" y="653" type="curve" smooth="yes"/>
      <point x="210" y="653"/>
      <point x="194" y="669"/>
      <point x="194" y="690" type="curve" smooth="yes"/>
      <point x="194" y="711"/>
      <point x="210" y="727"/>
      <point x="231" y="727" type="curve" smooth="yes"/>
      <point x="252" y="727"/>
      <point x="268" y="711"/>
    </contour>
    <contour>
      <point x="401" y="119" type="line"/>
      <point x="366" y="37"/>
      <point x="308" y="-12"/>
      <point x="212" y="-12" type="curve" smooth="yes"/>
      <point x="114" y="-12"/>
      <point x="50" y="57"/>
      <point x="50" y="140" type="curve" smooth="yes"/>
      <point x="50" y="214"/>
      <point x="78" y="248"/>
      <point x="148" y="321" type="curve" smooth="yes"/>
      <point x="203" y="378"/>
      <point x="217" y="411"/>
      <point x="217" y="522" type="curve"/>
      <point x="245" y="522" type="line"/>
      <point x="247" y="398"/>
      <point x="236" y="358"/>
      <point x="172" y="293" type="curve" smooth="yes"/>
      <point x="118" y="238"/>
      <point x="94" y="198"/>
      <point x="94" y="142" type="curve" smooth="yes"/>
      <point x="94" y="74"/>
      <point x="139" y="24"/>
      <point x="214" y="24" type="curve" smooth="yes"/>
      <point x="294" y="24"/>
      <point x="335" y="61"/>
      <point x="367" y="134" type="curve"/>
    </contour>
  </outline>
</glyph>
<glyph name="Ccedilla" format="1">
  <advance width="570"/>
  <unicode hex="00C7"/>
  <outline>
    <contour>
      <point x="526" y="200" type="line"/>
      <point x="497" y="83"/>
      <point x="435" y="-4"/>
      <point x="320" y="-11" type="curve"/>
      <point x="295" y="-56" type="line"/>
      <point x="310" y="-50"/>
      <point x="323" y="-46"/>
      <point x="341" y="-46" type="curve" smooth="yes"/>
      <point x="382" y="-46"/>
      <point x="408" y="-66"/>
      <point x="408" y="-104" type="curve" smooth="yes"/>
      <point x="408" y="-164"/>
      <point x="334" y="-193"/>
      <point x="213" y="-191" type="curve"/>
      <point x="213" y="-169" type="line"/>
      <point x="323" y="-167"/>
      <point x="363" y="-144"/>
      <point x="363" y="-109" type="curve" smooth="yes"/>
      <point x="363" y="-90"/>
      <point x="349" y="-78"/>
      <point x="324" y="-78" type="curve" smooth="yes"/>
      <point x="302" y="-78"/>
      <point x="286" y="-82"/>
      <point x="269" y="-90" type="curve"/>
      <point x="250" y="-78" type="line"/>
      <point x="288" y="-11" type="line"/>
      <point x="142" y="-1"/>
      <point x="57" y="143"/>
      <point x="57" y="358" type="curve" smooth="yes"/>
      <point x="57" y="360" type="line" smooth="yes"/>
      <point x="57" y="583"/>
      <point x="147" y="732"/>
      <point x="306" y="732" type="curve" smooth="yes"/>
      <point x="419" y="732"/>
      <point x="491" y="658"/>
      <point x="521" y="537" type="curve"/>
      <point x="482" y="523" type="line"/>
      <point x="453" y="633"/>
      <point x="399" y="696"/>
      <point x="306" y="696" type="curve" smooth="yes"/>
      <point x="168" y="696"/>
      <point x="101" y="554"/>
      <point x="101" y="362" type="curve" smooth="yes"/>
      <point x="101" y="360" type="line" smooth="yes"/>
      <point x="101" y="167"/>
      <point x="168" y="24"/>
      <point x="306" y="24" type="curve" smooth="yes"/>
      <point x="405" y="24"/>
      <point x="461" y="101"/>
      <point x="487" y="212" type="curve"/>
    </contour>
  </outline>
</glyph>
<glyph name="multiply" format="1">
  <advance width="600"/>
  <unicode hex="00D7"/>
  <outline>
    <contour>
      <point x="522" y="160" type="line"/>
      <point x="495" y="133" type="line"/>
      <point x="300" y="330" type="line"/>
      <point x="105" y="133" type="line"/>
      <point x="78" y="160" type="line"/>
      <point x="275" y="355" type="line"/>
      <point x="78" y="550" type="line"/>
      <point x="105" y="577" type="line"/>
      <point x="300" y="380" type="line"/>
      <point x="495" y="577" type="line"/>
      <point x="522" y="550" type="line"/>
      <point x="325" y="355" type="line"/>
    </contour>
  </outline>
</glyph>
<glyph name="Oslash" format="1">
  <advance width="608"/>
  <unicode hex="00D8"/>
  <outline>
    <contour>
      <point x="551" y="360" type="line" smooth="yes"/>
      <point x="551" y="137"/>
      <point x="461" y="-12"/>
      <point x="304" y="-12" type="curve" smooth="yes"/>
      <point x="248" y="-12"/>
      <point x="201" y="7"/>
      <point x="163" y="41" type="curve"/>
      <point x="95" y="-95" type="line"/>
      <point x="57" y="-95" type="line"/>
      <point x="138" y="67" type="line"/>
      <point x="85" y="131"/>
      <point x="57" y="233"/>
      <point x="57" y="358" type="curve" smooth="yes"/>
      <point x="57" y="360" type="line" smooth="yes"/>
      <point x="57" y="583"/>
      <point x="147" y="732"/>
      <point x="304" y="732" type="curve" smooth="yes"/>
      <point x="359" y="732"/>
      <point x="407" y="714"/>
      <point x="444" y="680" type="curve"/>
      <point x="513" y="817" type="line"/>
      <point x="551" y="817" type="line"/>
      <point x="469" y="654" type="line"/>
      <point x="522" y="589"/>
      <point x="551" y="488"/>
      <point x="551" y="362" type="curve" smooth="yes"/>
    </contour>
    <contour>
      <point x="426" y="643" type="line"/>
      <point x="395" y="678"/>
      <point x="354" y="697"/>
      <point x="304" y="697" type="curve" smooth="yes"/>
      <point x="168" y="697"/>
      <point x="100" y="555"/>
      <point x="100" y="362" type="curve" smooth="yes"/>
      <point x="100" y="360" type="line" smooth="yes"/>
      <point x="100" y="257"/>
      <point x="119" y="168"/>
      <point x="158" y="107" type="curve"/>
    </contour>
    <contour>
      <point x="508" y="358" type="curve" smooth="yes"/>
      <point x="508" y="360" type="line" smooth="yes"/>
      <point x="508" y="463"/>
      <point x="488" y="553"/>
      <point x="449" y="613" type="curve"/>
      <point x="181" y="77" type="line"/>
      <point x="213" y="42"/>
      <point x="253" y="23"/>
      <point x="304" y="23" type="curve" smooth="yes"/>
      <point x="440" y="23"/>
      <point x="508" y="164"/>
    </contour>
  </outline>
</glyph>
<glyph name="Thorn" format="1">
  <advance width="564"/>
  <unicode hex="00DE"/>
  <outline>
    <contour>
      <point x="519" y="371" type="curve" smooth="yes"/>
      <point x="519" y="242"/>
      <point x="437" y="168"/>
      <point x="288" y="168" type="curve" smooth="yes"/>
      <point x="136" y="168" type="line"/>
      <point x="136" y="0" type="line"/>
      <point x="92" y="0" type="line"/>
      <point x="92" y="720" type="line"/>
      <point x="136" y="720" type="line"/>
      <point x="136" y="572" type="line"/>
      <point x="292" y="572" type="line" smooth="yes"/>
      <point x="436" y="572"/>
      <point x="519" y="500"/>
    </contour>
    <contour>
      <point x="475" y="369" type="curve" smooth="yes"/>
      <point x="475" y="476"/>
      <point x="412" y="536"/>
      <point x="288" y="536" type="curve" smooth="yes"/>
      <point x="136" y="536" type="line"/>
      <point x="136" y="204" type="line"/>
      <point x="293" y="204" type="line" smooth="yes"/>
      <point x="410" y="204"/>
      <point x="475" y="258"/>
    </contour>
  </outline>
</glyph>
<glyph name="ccedilla" format="1">
  <advance width="430"/>
  <unicode hex="00E7"/>
  <outline>
    <contour>
      <point x="396" y="111" type="line"/>
      <point x="366" y="42"/>
      <point x="317" y="-5"/>
      <point x="247" y="-10" type="curve"/>
      <point x="220" y="-56" type="line"/>
      <point x="235" y="-50"/>
      <point x="248" y="-46"/>
      <point x="266" y="-46" type="curve" smooth="yes"/>
      <point x="307" y="-46"/>
      <point x="333" y="-66"/>
      <point x="333" y="-104" type="curve" smooth="yes"/>
      <point x="333" y="-164"/>
      <point x="259" y="-193"/>
      <point x="138" y="-191" type="curve"/>
      <point x="138" y="-169" type="line"/>
      <point x="248" y="-167"/>
      <point x="288" y="-144"/>
      <point x="288" y="-109" type="curve" smooth="yes"/>
      <point x="288" y="-90"/>
      <point x="274" y="-78"/>
      <point x="249" y="-78" type="curve" smooth="yes"/>
      <point x="227" y="-78"/>
      <point x="211" y="-82"/>
      <point x="194" y="-90" type="curve"/>
      <point x="175" y="-78" type="line"/>
      <point x="214" y="-9" type="line"/>
      <point x="112" y="4"/>
      <point x="46" y="108"/>
      <point x="46" y="254" type="curve" smooth="yes"/>
      <point x="46" y="256" type="line" smooth="yes"/>
      <point x="46" y="410"/>
      <point x="122" y="522"/>
      <point x="238" y="522" type="curve" smooth="yes"/>
      <point x="315" y="522"/>
      <point x="361" y="479"/>
      <point x="393" y="409" type="curve"/>
      <point x="361" y="394" type="line"/>
      <point x="332" y="453"/>
      <point x="299" y="490"/>
      <point x="236" y="490" type="curve" smooth="yes"/>
      <point x="143" y="490"/>
      <point x="86" y="393"/>
      <point x="86" y="258" type="curve" smooth="yes"/>
      <point x="86" y="256" type="line" smooth="yes"/>
      <point x="86" y="120"/>
      <point x="142" y="22"/>
      <point x="237" y="22" type="curve" smooth="yes"/>
      <point x="298" y="22"/>
      <point x="335" y="59"/>
      <point x="366" y="125" type="curve"/>
    </contour>
  </outline>
</glyph>
<glyph name="eth" format="1">
  <advance width="483"/>
  <unicode hex="00F0"/>
  <outline>
    <contour>
      <point x="434" y="276" type="line" smooth="yes"/>
      <point x="434" y="101"/>
      <point x="360" y="-10"/>
      <point x="240" y="-10" type="curve" smooth="yes"/>
      <point x="122" y="-10"/>
      <point x="46" y="100"/>
      <point x="46" y="254" type="curve" smooth="yes"/>
      <point x="46" y="256" type="line" smooth="yes"/>
      <point x="46" y="410"/>
      <point x="122" y="522"/>
      <point x="240" y="522" type="curve" smooth="yes"/>
      <point x="312" y="522"/>
      <point x="363" y="467"/>
      <point x="392" y="396" type="curve"/>
      <point x="398" y="396" type="line"/>
      <point x="388" y="501"/>
      <point x="343" y="589"/>
      <point x="289" y="659" type="curve"/>
      <point x="176" y="590" type="line"/>
      <point x="176" y="628" type="line"/>
      <point x="268" y="684" type="line"/>
      <point x="249" y="707"/>
      <point x="229" y="728"/>
      <point x="208" y="747" type="curve"/>
      <point x="244" y="762" type="line"/>
      <point x="261" y="744"/>
      <point x="280" y="724"/>
      <point x="297" y="702" type="curve"/>
      <point x="396" y="762" type="line"/>
      <point x="396" y="724" type="line"/>
      <point x="318" y="676" type="line"/>
      <point x="380" y="593"/>
      <point x="434" y="476"/>
      <point x="434" y="278" type="curve" smooth="yes"/>
    </contour>
    <contour>
      <point x="394" y="254" type="curve" smooth="yes"/>
      <point x="394" y="256" type="line" smooth="yes"/>
      <point x="394" y="392"/>
      <point x="338" y="490"/>
      <point x="240" y="490" type="curve" smooth="yes"/>
      <point x="142" y="490"/>
      <point x="86" y="393"/>
      <point x="86" y="258" type="curve" smooth="yes"/>
      <point x="86" y="256" type="line" smooth="yes"/>
      <point x="86" y="120"/>
      <point x="142" y="22"/>
      <point x="240" y="22" type="curve" smooth="yes"/>
      <point x="338" y="22"/>
      <point x="394" y="119"/>
    </contour>
  </outline>
</glyph>
<glyph name="Lslash" format="1">
  <advance width="539"/>
  <unicode hex="0141"/>
  <outline>
    <contour>
      <point x="522" y="0" type="line"/>
      <point x="127" y="0" type="line"/>
      <point x="127" y="339" type="line"/>
      <point x="31" y="293" type="line"/>
      <point x="31" y="335" type="line"/>
      <point x="127" y="380" type="line"/>
      <point x="127" y="720" type="line"/>
      <point x="171" y="720" type="line"/>
      <point x="171" y="401" type="line"/>
      <point x="324" y="474" type="line"/>
      <point x="324" y="432" type="line"/>
      <point x="171" y="359" type="line"/>
      <point x="171" y="36" type="line"/>
      <point x="522" y="36" type="line"/>
    </contour>
  </outline>
</glyph>
<glyph name="OE" format="1">
  <advance width="882"/>
  <unicode hex="0152"/>
  <outline>
    <contour>
      <point x="840" y="0" type="line"/>
      <point x="368" y="0" type="line" smooth="yes"/>
      <point x="164" y="0"/>
      <point x="57" y="135"/>
      <point x="57" y="358" type="curve" smooth="yes"/>
      <point x="57" y="360" type="line" smooth="yes"/>
      <point x="57" y="585"/>
      <point x="170" y="720"/>
      <point x="373" y="720" type="curve" smooth="yes"/>
      <point x="828" y="720" type="line"/>
      <point x="828" y="684" type="line"/>
      <point x="494" y="684" type="line"/>
      <point x="494" y="396" type="line"/>
      <point x="775" y="396" type="line"/>
      <point x="775" y="360" type="line"/>
      <point x="494" y="360" type="line"/>
      <point x="494" y="36" type="line"/>
      <point x="840" y="36" type="line"/>
    </contour>
    <contour>
      <point x="451" y="36" type="line"/>
      <point x="451" y="684" type="line"/>
      <point x="368" y="684" type="line" smooth="yes"/>
      <point x="201" y="684"/>
      <point x="101" y="570"/>
      <point x="101" y="362" type="curve" smooth="yes"/>
      <point x="101" y="360" type="line" smooth="yes"/>
      <point x="101" y="150"/>
      <point x="197" y="36"/>
      <point x="373" y="36" type="curve" smooth="yes"/>
    </contour>
  </outline>
</glyph>
<glyph name="circumflex" format="1">
  <advance width="500"/>
  <unicode hex="02C6"/>
  <outline>
    <contour>
      <point x="399" y="587" type="line"/>
      <point x="371" y="587" type="line"/>
      <point x="249" y="701" type="line"/>
      <point x="127" y="587" type="line"/>
      <point x="101" y="587" type="line"/>
      <point x="228" y="743" type="line"/>
      <point x="272" y="743" type="line"/>
    </contour>
  </outline>
</glyph>
<glyph name="breve" format="1">
  <advance width="500"/>
  <unicode hex="02D8"/>
  <outline>
    <contour>
      <point x="394" y="748" type="line"/>
      <point x="389" y="648"/>
      <point x="336" y="589"/>
      <point x="250" y="589" type="curve" smooth="yes"/>
      <point x="164" y="589"/>
      <point x="111" y="648"/>
      <point x="106" y="748" type="curve"/>
      <point x="137" y="748" type="line"/>
      <point x="147" y="667"/>
      <point x="188" y="632"/>
      <point x="250" y="632" type="curve" smooth="yes"/>
      <point x="312" y="632"/>
      <point x="353" y="667"/>
      <point x="363" y="748" type="curve"/>
    </contour>
  </outline>
</glyph>
<glyph name="ring" format="1">
  <advance width="500"/>
  <unicode hex="02DA"/>
  <outline>
    <contour>
      <point x="337" y="672" type="curve" smooth="yes"/>
      <point x="337" y="622"/>
      <point x="300" y="585"/>
      <point x="250" y="585" type="curve" smooth="yes"/>
      <point x="200" y="585"/>
      <point x="163" y="622"/>
      <point x="163" y="672" type="curve" smooth="yes"/>
      <point x="163" y="721"/>
      <point x="200" y="758"/>
      <point x="250" y="758" type="curve" smooth="yes"/>
      <point x="300" y="758"/>
      <point x="337" y="721"/>
    </contour>
    <contour>
      <point x="307" y="672" type="curve" smooth="yes"/>
      <point x="307" y="706"/>
      <point x="283" y="731"/>
      <point x="250" y="731" type="curve" smooth="yes"/>
      <point x="217" y="731"/>
      <point x="193" y="706"/>
      <point x="193" y="672" type="curve" smooth="yes"/>
      <point x="193" y="637"/>
      <point x="217" y="612"/>
      <point x="250" y="612" type="curve" smooth="yes"/>
      <point x="283" y="612"/>
      <point x="307" y="637"/>
    </contour>
  </outline>
</glyph>
<glyph name="ogonek" format="1">
  <advance width="500"/>
  <unicode hex="02DB"/>
  <outline>
    <contour>
      <point x="365" y="-154" type="line"/>
      <point x="326" y="-176"/>
      <point x="286" y="-190"/>
      <point x="248" y="-190" type="curve" smooth="yes"/>
      <point x="194" y="-190"/>
      <point x="156" y="-163"/>
      <point x="156" y="-115" type="curve" smooth="yes"/>
      <point x="156" y="-71"/>
      <point x="195" y="-29"/>
      <point x="241" y="0" type="curve"/>
      <point x="272" y="0" type="line"/>
      <point x="228" y="-33"/>
      <point x="200" y="-72"/>
      <point x="200" y="-110" type="curve" smooth="yes"/>
      <point x="200" y="-139"/>
      <point x="223" y="-159"/>
      <point x="255" y="-159" type="curve" smooth="yes"/>
      <point x="290" y="-159"/>
      <point x="320" y="-150"/>
      <point x="355" y="-135" type="curve"/>
    </contour>
  </outline>
</glyph>
<glyph name="tilde" format="1">
  <advance width="500"/>
  <unicode hex="02DC"/>
  <outline>
    <contour>
      <point x="398" y="688" type="line"/>
      <point x="397" y="623"/>
      <point x="372" y="593"/>
      <point x="323" y="593" type="curve" smooth="yes"/>
      <point x="271" y="593"/>
      <point x="215" y="651"/>
      <point x="175" y="651" type="curve" smooth="yes"/>
      <point x="145" y="651"/>
      <point x="132" y="634"/>
      <point x="132" y="595" type="curve"/>
      <point x="102" y="595" type="line"/>
      <point x="103" y="660"/>
      <point x="128" y="690"/>
      <point x="177" y="690" type="curve" smooth="yes"/>
      <point x="229" y="690"/>
      <point x="285" y="632"/>
      <point x="325" y="632" type="curve" smooth="yes"/>
      <point x="355" y="632"/>
      <point x="368" y="649"/>
      <point x="368" y="688" type="curve"/>
    </contour>
  </outline>
</glyph>
<glyph name="quotesinglbase" format="1">
  <advance width="170"/>
  <unicode hex="201A"/>
  <outline>
    <contour>
      <point x="120" y="75" type="line"/>
      <point x="62" y="-120" type="line"/>
      <point x="33" y="-120" type="line"/>
      <point x="68" y="75" type="line"/>
    </contour>
  </outline>
</glyph>
<glyph name="quotedblright" format="1">
  <advance width="300"/>
  <unicode hex="201D"/>
  <outline>
    <contour>
      <point x="263" y="720" type="line"/>
      <point x="205" y="525" type="line"/>
      <point x="176" y="525" type="line"/>
      <point x="211" y="720" type="line"/>
    </contour>
    <contour>
      <point x="133" y="720" type="line"/>
      <point x="75" y="525" type="line"/>
      <point x="46" y="525" type="line"/>
      <point x="81" y="720" type="line"/>
    </contour>
  </outline>
</glyph>
<glyph name="quotedblbase" format="1">
  <advance width="300"/>
  <unicode hex="201E"/>
  <outline>
    <contour>
      <point x="250" y="75" type="line"/>
      <point x="192" y="-120" type="line"/>
      <point x="163" y="-120" type="line"/>
      <point x="198" y="75" type="line"/>
    </contour>
    <contour>
      <point x="120" y="75" type="line"/>
      <point x="62" y="-120" type="line"/>
      <point x="33" y="-120" type="line"/>
      <point x="68" y="75" type="line"/>
    </contour>
  </outline>
</glyph>
<glyph name="dagger" format="1">
  <advance width="418"/>
  <unicode hex="2020"/>
  <outline>
    <contour>
      <point x="384" y="474" type="line"/>
      <point x="222" y="485" type="line"/>
      <point x="234" y="347" type="line"/>
      <point x="219" y="0" type="line"/>
      <point x="199" y="0" type="line"/>
      <point x="184" y="347" type="line"/>
      <point x="196" y="485" type="line"/>
      <point x="34" y="474" type="line"/>
      <point x="34" y="515" type="line"/>
      <point x="196" y="503" type="line"/>
      <point x="184" y="720" type="line"/>
      <point x="234" y="720" type="line"/>
      <point x="222" y="503" type="line"/>
      <point x="384" y="515" type="line"/>
    </contour>
  </outline>
</glyph>
<glyph name="perthousand" format="1">
  <advance width="1170"/>
  <unicode hex="2030"/>
  <outline>
    <contour>
      <point x="1134" y="180" type="curve" smooth="yes"/>
      <point x="1134" y="68"/>
      <point x="1065" y="-7"/>
      <point x="979" y="-7" type="curve" smooth="yes"/>
      <point x="893" y="-7"/>
      <point x="826" y="68"/>
      <point x="826" y="180" type="curve" smooth="yes"/>
      <point x="826" y="292"/>
      <point x="895" y="367"/>
      <point x="981" y="367" type="curve" smooth="yes"/>
      <point x="1067" y="367"/>
      <point x="1134" y="292"/>
    </contour>
    <contour>
      <point x="764" y="180" type="curve" smooth="yes"/>
      <point x="764" y="68"/>
      <point x="695" y="-7"/>
      <point x="609" y="-7" type="curve" smooth="yes"/>
      <point x="523" y="-7"/>
      <point x="456" y="68"/>
      <point x="456" y="180" type="curve" smooth="yes"/>
      <point x="456" y="292"/>
      <point x="525" y="367"/>
      <point x="611" y="367" type="curve" smooth="yes"/>
      <point x="697" y="367"/>
      <point x="764" y="292"/>
    </contour>
    <contour>
      <point x="640" y="720" type="line"/>
      <point x="416" y="353" type="line"/>
      <point x="202" y="0" type="line"/>
      <point x="160" y="0" type="line"/>
      <point x="384" y="367" type="line"/>
      <point x="598" y="720" type="line"/>
    </contour>
    <contour>
      <point x="344" y="540" type="curve" smooth="yes"/>
      <point x="344" y="428"/>
      <point x="275" y="353"/>
      <point x="189" y="353" type="curve" smooth="yes"/>
      <point x="103" y="353"/>
      <point x="36" y="428"/>
      <point x="36" y="540" type="curve" smooth="yes"/>
      <point x="36" y="652"/>
      <point x="105" y="727"/>
      <point x="191" y="727" type="curve" smooth="yes"/>
      <point x="277" y="727"/>
      <point x="344" y="652"/>
    </contour>
    <contour>
      <point x="1093" y="179" type="curve" smooth="yes"/>
      <point x="1093" y="270"/>
      <point x="1050" y="333"/>
      <point x="980" y="333" type="curve" smooth="yes"/>
      <point x="911" y="333"/>
      <point x="867" y="272"/>
      <point x="867" y="181" type="curve" smooth="yes"/>
      <point x="867" y="90"/>
      <point x="910" y="27"/>
      <point x="980" y="27" type="curve" smooth="yes"/>
      <point x="1049" y="27"/>
      <point x="1093" y="88"/>
    </contour>
    <contour>
      <point x="723" y="179" type="curve" smooth="yes"/>
      <point x="723" y="270"/>
      <point x="680" y="333"/>
      <point x="610" y="333" type="curve" smooth="yes"/>
      <point x="541" y="333"/>
      <point x="497" y="272"/>
      <point x="497" y="181" type="curve" smooth="yes"/>
      <point x="497" y="90"/>
      <point x="540" y="27"/>
      <point x="610" y="27" type="curve" smooth="yes"/>
      <point x="679" y="27"/>
      <point x="723" y="88"/>
    </contour>
    <contour>
      <point x="303" y="539" type="curve" smooth="yes"/>
      <point x="303" y="630"/>
      <point x="260" y="693"/>
      <point x="190" y="693" type="curve" smooth="yes"/>
      <point x="121" y="693"/>
      <point x="77" y="632"/>
      <point x="77" y="541" type="curve" smooth="yes"/>
      <point x="77" y="450"/>
      <point x="120" y="387"/>
      <point x="190" y="387" type="curve" smooth="yes"/>
      <point x="259" y="387"/>
      <point x="303" y="448"/>
    </contour>
  </outline>
</glyph>
<glyph name="guilsinglright" format="1">
  <advance width="257"/>
  <unicode hex="203A"/>
  <outline>
    <contour>
      <point x="225" y="256" type="line"/>
      <point x="70" y="80" type="line"/>
      <point x="36" y="80" type="line"/>
      <point x="173" y="256" type="line"/>
      <point x="36" y="432" type="line"/>
      <point x="70" y="432" type="line"/>
    </contour>
  </outline>
</glyph>
<glyph name="fraction" format="1">
  <advance width="360"/>
  <unicode hex="2044"/>
  <outline>
    <contour>
      <point x="391" y="735" type="line"/>
      <point x="11" y="-15" type="line"/>
      <point x="-31" y="-15" type="line"/>
      <point x="349" y="735" type="line"/>
    </contour>
  </outline>
</glyph>
<glyph name="uni2117" format="1">
  <advance width="840"/>
  <unicode hex="2117"/>
  <outline>
    <contour>
      <point x="792" y="360" type="curve" smooth="yes"/>
      <point x="792" y="150"/>
      <point x="630" y="-12"/>
      <point x="420" y="-12" type="curve" smooth="yes"/>
      <point x="210" y="-12"/>
      <point x="48" y="150"/>
      <point x="48" y="360" type="curve" smooth="yes"/>
      <point x="48" y="570"/>
      <point x="210" y="732"/>
      <point x="420" y="732" type="curve" smooth="yes"/>
      <point x="630" y="732"/>
      <point x="792" y="570"/>
    </contour>
    <contour>
      <point x="758" y="360" type="curve" smooth="yes"/>
      <point x="758" y="553"/>
      <point x="613" y="702"/>
      <point x="420" y="702" type="curve" smooth="yes"/>
      <point x="227" y="702"/>
      <point x="82" y="553"/>
      <point x="82" y="360" type="curve" smooth="yes"/>
      <point x="82" y="167"/>
      <point x="227" y="18"/>
      <point x="420" y="18" type="curve" smooth="yes"/>
      <point x="613" y="18"/>
      <point x="758" y="167"/>
    </contour>
    <contour>
      <point x="571" y="446" type="curve" smooth="yes"/>
      <point x="571" y="374"/>
      <point x="522" y="329"/>
      <point x="435" y="329" type="curve" smooth="yes"/>
      <point x="361" y="329" type="line"/>
      <point x="361" y="161" type="line"/>
      <point x="320" y="161" type="line"/>
      <point x="320" y="562" type="line"/>
      <point x="438" y="562" type="line" smooth="yes"/>
      <point x="522" y="562"/>
      <point x="571" y="518"/>
    </contour>
    <contour>
      <point x="530" y="445" type="curve" smooth="yes"/>
      <point x="530" y="496"/>
      <point x="498" y="526"/>
      <point x="435" y="526" type="curve" smooth="yes"/>
      <point x="361" y="526" type="line"/>
      <point x="361" y="365" type="line"/>
      <point x="438" y="365" type="line" smooth="yes"/>
      <point x="497" y="365"/>
      <point x="530" y="392"/>
    </contour>
  </outline>
</glyph>
<glyph name="trademark" format="1">
  <advance width="780"/>
  <unicode hex="2122"/>
  <outline>
    <contour>
      <point x="705" y="380" type="line"/>
      <point x="676" y="380" type="line"/>
      <point x="676" y="695" type="line"/>
      <point x="674" y="695" type="line"/>
      <point x="558" y="380" type="line"/>
      <point x="519" y="380" type="line"/>
      <point x="403" y="695" type="line"/>
      <point x="401" y="695" type="line"/>
      <point x="401" y="380" type="line"/>
      <point x="370" y="380" type="line"/>
      <point x="370" y="720" type="line"/>
      <point x="426" y="720" type="line"/>
      <point x="536" y="409" type="line"/>
      <point x="539" y="409" type="line"/>
      <point x="649" y="720" type="line"/>
      <point x="705" y="720" type="line"/>
    </contour>
    <contour>
      <point x="299" y="693" type="line"/>
      <point x="184" y="693" type="line"/>
      <point x="184" y="380" type="line"/>
      <point x="152" y="380" type="line"/>
      <point x="152" y="693" type="line"/>
      <point x="37" y="693" type="line"/>
      <point x="37" y="720" type="line"/>
      <point x="299" y="720" type="line"/>
    </contour>
  </outline>
</glyph>
<glyph name="apple" format="1">
  <advance width="500"/>
  <unicode hex="F8FF"/>
  <outline>
    <contour>
      <point x="458" y="163" type="line"/>
      <point x="443" y="120" type="line"/>
      <point x="260" y="194" type="line"/>
      <point x="274" y="0" type="line"/>
      <point x="226" y="0" type="line"/>
      <point x="240" y="194" type="line"/>
      <point x="57" y="120" type="line"/>
      <point x="42" y="163" type="line"/>
      <point x="230" y="212" type="line"/>
      <point x="105" y="359" type="line"/>
      <point x="105" y="361" type="line"/>
      <point x="230" y="508" type="line"/>
      <point x="42" y="557" type="line"/>
      <point x="57" y="600" type="line"/>
      <point x="240" y="526" type="line"/>
      <point x="226" y="720" type="line"/>
      <point x="274" y="720" type="line"/>
      <point x="260" y="526" type="line"/>
      <point x="443" y="600" type="line"/>
      <point x="458" y="557" type="line"/>
      <point x="270" y="508" type="line"/>
      <point x="395" y="361" type="line"/>
      <point x="395" y="359" type="line"/>
      <point x="270" y="212" type="line"/>
    </contour>
    <contour>
      <point x="344" y="360" type="line"/>
      <point x="250" y="498" type="line"/>
      <point x="156" y="360" type="line"/>
      <point x="250" y="222" type="line"/>
    </contour>
  </outline>
</glyph>
<glyph name="f_f" format="1">
  <advance width="571"/>
  <unicode hex="FB00"/>
  <outline>
    <contour>
      <point x="589" y="706" type="line"/>
      <point x="567" y="719"/>
      <point x="541" y="727"/>
      <point x="503" y="727" type="curve" smooth="yes"/>
      <point x="458" y="727"/>
      <point x="431" y="698"/>
      <point x="431" y="636" type="curve" smooth="yes"/>
      <point x="431" y="507" type="line"/>
      <point x="561" y="507" type="line"/>
      <point x="561" y="475" type="line"/>
      <point x="431" y="475" type="line"/>
      <point x="431" y="0" type="line"/>
      <point x="391" y="0" type="line"/>
      <point x="391" y="475" type="line"/>
      <point x="165" y="475" type="line"/>
      <point x="165" y="0" type="line"/>
      <point x="125" y="0" type="line"/>
      <point x="125" y="475" type="line"/>
      <point x="19" y="475" type="line"/>
      <point x="19" y="507" type="line"/>
      <point x="125" y="507" type="line"/>
      <point x="125" y="634" type="line" smooth="yes"/>
      <point x="125" y="718"/>
      <point x="172" y="759"/>
      <point x="240" y="759" type="curve" smooth="yes"/>
      <point x="279" y="759"/>
      <point x="301" y="754"/>
      <point x="323" y="746" type="curve"/>
      <point x="323" y="706" type="line"/>
      <point x="301" y="719"/>
      <point x="275" y="727"/>
      <point x="237" y="727" type="curve" smooth="yes"/>
      <point x="192" y="727"/>
      <point x="165" y="698"/>
      <point x="165" y="636" type="curve" smooth="yes"/>
      <point x="165" y="507" type="line"/>
      <point x="391" y="507" type="line"/>
      <point x="391" y="634" type="line" smooth="yes"/>
      <point x="391" y="718"/>
      <point x="438" y="759"/>
      <point x="506" y="759" type="curve" smooth="yes"/>
      <point x="545" y="759"/>
      <point x="567" y="754"/>
      <point x="589" y="746" type="curve"/>
    </contour>
  </outline>
</glyph>
<glyph name="fl" format="1">
  <advance width="517"/>
  <unicode hex="FB02"/>
  <outline>
    <contour>
      <point x="431" y="0" type="line"/>
      <point x="391" y="0" type="line"/>
      <point x="391" y="740" type="line"/>
      <point x="431" y="762" type="line"/>
    </contour>
    <contour>
      <point x="323" y="706" type="line"/>
      <point x="301" y="719"/>
      <point x="275" y="727"/>
      <point x="237" y="727" type="curve" smooth="yes"/>
      <point x="192" y="727"/>
      <point x="165" y="698"/>
      <point x="165" y="636" type="curve" smooth="yes"/>
      <point x="165" y="507" type="line"/>
      <point x="295" y="507" type="line"/>
      <point x="295" y="475" type="line"/>
      <point x="165" y="475" type="line"/>
      <point x="165" y="0" type="line"/>
      <point x="125" y="0" type="line"/>
      <point x="125" y="475" type="line"/>
      <point x="19" y="475" type="line"/>
      <point x="19" y="507" type="line"/>
      <point x="125" y="507" type="line"/>
      <point x="125" y="634" type="line" smooth="yes"/>
      <point x="125" y="718"/>
      <point x="172" y="759"/>
      <point x="240" y="759" type="curve" smooth="yes"/>
      <point x="279" y="759"/>
      <point x="301" y="754"/>
      <point x="323" y="746" type="curve"/>
    </contour>
  </outline>
</glyph>
<glyph name="I.salt" format="1">
  <advance width="248"/>
  <outline>
    <contour>
      <point x="146" y="0" type="line"/>
      <point x="102" y="0" type="line"/>
      <point x="102" y="720" type="line"/>
      <point x="146" y="720" type="line"/>
    </contour>
  </outline>
</glyph>
<glyph name="registered.big" format="1">
  <advance width="840"/>
  <outline>
    <contour>
      <point x="792" y="360" type="curve" smooth="yes"/>
      <point x="792" y="150"/>
      <point x="630" y="-12"/>
      <point x="420" y="-12" type="curve" smooth="yes"/>
      <point x="210" y="-12"/>
      <point x="48" y="150"/>
      <point x="48" y="360" type="curve" smooth="yes"/>
      <point x="48" y="570"/>
      <point x="210" y="732"/>
      <point x="420" y="732" type="curve" smooth="yes"/>
      <point x="630" y="732"/>
      <point x="792" y="570"/>
    </contour>
    <contour>
      <point x="758" y="360" type="curve" smooth="yes"/>
      <point x="758" y="553"/>
      <point x="613" y="702"/>
      <point x="420" y="702" type="curve" smooth="yes"/>
      <point x="227" y="702"/>
      <point x="82" y="553"/>
      <point x="82" y="360" type="curve" smooth="yes"/>
      <point x="82" y="167"/>
      <point x="227" y="18"/>
      <point x="420" y="18" type="curve" smooth="yes"/>
      <point x="613" y="18"/>
      <point x="758" y="167"/>
    </contour>
    <contour>
      <point x="577" y="164" type="line"/>
      <point x="529" y="164" type="line"/>
      <point x="408" y="341" type="line"/>
      <point x="345" y="341" type="line"/>
      <point x="345" y="164" type="line"/>
      <point x="304" y="164" type="line"/>
      <point x="304" y="565" type="line"/>
      <point x="428" y="565" type="line" smooth="yes"/>
      <point x="510" y="565"/>
      <point x="561" y="526"/>
      <point x="561" y="454" type="curve" smooth="yes"/>
      <point x="561" y="389"/>
      <point x="519" y="352"/>
      <point x="454" y="343" type="curve"/>
    </contour>
    <contour>
      <point x="520" y="453" type="curve" smooth="yes"/>
      <point x="520" y="503"/>
      <point x="488" y="530"/>
      <point x="426" y="530" type="curve" smooth="yes"/>
      <point x="345" y="530" type="line"/>
      <point x="345" y="377" type="line"/>
      <point x="428" y="377" type="line" smooth="yes"/>
      <point x="487" y="377"/>
      <point x="520" y="400"/>
    </contour>
  </outline>
</glyph>
<glyph name="registered" format="1">
  <advance width="532"/>
  <outline>
    <contour>
      <point x="489" y="504" type="curve" smooth="yes"/>
      <point x="489" y="378"/>
      <point x="392" y="281"/>
      <point x="266" y="281" type="curve" smooth="yes"/>
      <point x="140" y="281"/>
      <point x="43" y="378"/>
      <point x="43" y="504" type="curve" smooth="yes"/>
      <point x="43" y="630"/>
      <point x="140" y="727"/>
      <point x="266" y="727" type="curve" smooth="yes"/>
      <point x="392" y="727"/>
      <point x="489" y="630"/>
    </contour>
    <contour>
      <point x="464" y="504" type="curve" smooth="yes"/>
      <point x="464" y="617"/>
      <point x="379" y="704"/>
      <point x="266" y="704" type="curve" smooth="yes"/>
      <point x="153" y="704"/>
      <point x="68" y="617"/>
      <point x="68" y="504" type="curve" smooth="yes"/>
      <point x="68" y="391"/>
      <point x="153" y="304"/>
      <point x="266" y="304" type="curve" smooth="yes"/>
      <point x="379" y="304"/>
      <point x="464" y="391"/>
    </contour>
    <contour>
      <point x="368" y="382" type="line"/>
      <point x="330" y="382" type="line"/>
      <point x="256" y="489" type="line"/>
      <point x="225" y="489" type="line"/>
      <point x="225" y="382" type="line"/>
      <point x="192" y="382" type="line"/>
      <point x="192" y="631" type="line"/>
      <point x="271" y="631" type="line" smooth="yes"/>
      <point x="323" y="631"/>
      <point x="355" y="606"/>
      <point x="355" y="560" type="curve" smooth="yes"/>
      <point x="355" y="521"/>
      <point x="330" y="497"/>
      <point x="293" y="491" type="curve"/>
    </contour>
    <contour>
      <point x="322" y="560" type="curve" smooth="yes"/>
      <point x="322" y="588"/>
      <point x="304" y="602"/>
      <point x="270" y="602" type="curve" smooth="yes"/>
      <point x="225" y="602" type="line"/>
      <point x="225" y="518" type="line"/>
      <point x="271" y="518" type="line" smooth="yes"/>
      <point x="303" y="518"/>
      <point x="322" y="531"/>
    </contour>
  </outline>
</glyph>
